# xmcd CD database file
#
# Track frame offsets:
#	150
#	28375
#	50875
#	55425
#	65125
#	68725
#	86125
#	91600
#	100225
#	110650
#	114025
#	117675
#	121225
#	127375
#	132400
#	138925
#	144750
#	160975
#	180975
#	192850
#	201375
#	209500
#	218125
#	241800
#	245250
#	274275
#
# Disc length: 4021 seconds
#
# Revision: 0
# Processed by: cddbd v1.5.2PL0 Copyright (c) Steve Scherf et al.
# Submitted via: CDex 1.70beta2
#
DISCID=970fb31a
DTITLE=Paul-Marie Lapointe - Jazz et poésie
DYEAR=2001
DGENRE=Jazz
TTITLE0=Spotlight
TTITLE1=Peinte au creux de la pierre
TTITLE2=Une amante de chair
TTITLE3=Que tient en son nid
TTITLE4=L'amphore en l'eau fraîche
TTITLE5=Musique
TTITLE6=Idole entre les paumes
TTITLE7=Ces membres-là
TTITLE8=Deux
TTITLE9=Si cette espagnole musique
TTITLE10=Jambe de soie noire
TTITLE11=Musique
TTITLE12=Rousse crinière perverse
TTITLE13=Craquelure du rose
TTITLE14=Contre la gorgone et...
TTITLE15=Le bouche forme le centre vif
TTITLE16=Musique
TTITLE17=Musique
TTITLE18=Autour du palmier
TTITLE19=La flèche de fushia
TTITLE20=Ardente marée
TTITLE21=Malgré l'immense nuage
TTITLE22=L'hippocampe, frèle archange
TTITLE23=Portrait d'une jeune fille brune
TTITLE24=Musique
TTITLE25=Petit blues
EXTD=YEAR: 2001
EXTT0=
EXTT1=
EXTT2=
EXTT3=
EXTT4=
EXTT5=
EXTT6=
EXTT7=
EXTT8=
EXTT9=
EXTT10=
EXTT11=
EXTT12=
EXTT13=
EXTT14=
EXTT15=
EXTT16=
EXTT17=
EXTT18=
EXTT19=
EXTT20=
EXTT21=
EXTT22=
EXTT23=
EXTT24=
EXTT25=
PLAYORDER=
